<svg width="73" height="99" viewBox="0 0 73 99" fill="none" xmlns="http://www.w3.org/2000/svg">
<circle cx="4" cy="4" r="4" fill="#0E1D27"/>
<circle cx="17" cy="4" r="4" fill="#0E1D27"/>
<circle cx="30" cy="4" r="4" fill="#0E1D27"/>
<circle cx="30" cy="17" r="4" fill="#0E1D27"/>
<circle cx="17" cy="17" r="4" fill="#0E1D27"/>
<circle cx="4" cy="17" r="4" fill="#0E1D27"/>
<circle cx="4" cy="30" r="4" fill="#0E1D27"/>
<circle cx="17" cy="30" r="4" fill="#0E1D27"/>
<circle cx="30" cy="30" r="4" fill="#0E1D27"/>
<circle cx="30" cy="43" r="4" fill="#0E1D27"/>
<circle cx="17" cy="43" r="4" fill="#0E1D27"/>
<circle cx="4" cy="43" r="4" fill="#0E1D27"/>
<circle cx="4" cy="56" r="4" fill="#0E1D27"/>
<circle cx="17" cy="56" r="4" fill="#0E1D27"/>
<circle cx="30" cy="56" r="4" fill="#0E1D27"/>
<circle cx="30" cy="69" r="4" fill="#0E1D27"/>
<circle cx="17" cy="69" r="4" fill="#0E1D27"/>
<circle cx="4" cy="69" r="4" fill="#0E1D27"/>
<circle cx="4" cy="82" r="4" fill="#0E1D27"/>
<circle cx="17" cy="82" r="4" fill="#0E1D27"/>
<circle cx="30" cy="82" r="4" fill="#0E1D27"/>
<circle cx="30" cy="95" r="4" fill="#0E1D27"/>
<circle cx="17" cy="95" r="4" fill="#0E1D27"/>
<circle cx="4" cy="95" r="4" fill="#0E1D27"/>
<circle cx="43" cy="4" r="4" fill="#0E1D27"/>
<circle cx="56" cy="4" r="4" fill="#0E1D27"/>
<circle cx="69" cy="4" r="4" fill="#0E1D27"/>
<circle cx="69" cy="17" r="4" fill="#0E1D27"/>
<circle cx="56" cy="17" r="4" fill="#0E1D27"/>
<circle cx="43" cy="17" r="4" fill="#0E1D27"/>
<circle cx="43" cy="30" r="4" fill="#0E1D27"/>
<circle cx="56" cy="30" r="4" fill="#0E1D27"/>
<circle cx="69" cy="30" r="4" fill="#0E1D27"/>
<circle cx="69" cy="43" r="4" fill="#0E1D27"/>
<circle cx="56" cy="43" r="4" fill="#0E1D27"/>
<circle cx="43" cy="43" r="4" fill="#0E1D27"/>
<circle cx="43" cy="56" r="4" fill="#0E1D27"/>
<circle cx="56" cy="56" r="4" fill="#0E1D27"/>
<circle cx="69" cy="56" r="4" fill="#0E1D27"/>
<circle cx="69" cy="69" r="4" fill="#0E1D27"/>
<circle cx="56" cy="69" r="4" fill="#0E1D27"/>
<circle cx="43" cy="69" r="4" fill="#0E1D27"/>
<circle cx="43" cy="82" r="4" fill="#0E1D27"/>
<circle cx="56" cy="82" r="4" fill="#0E1D27"/>
<circle cx="69" cy="82" r="4" fill="#0E1D27"/>
<circle cx="69" cy="95" r="4" fill="#0E1D27"/>
<circle cx="56" cy="95" r="4" fill="#0E1D27"/>
<circle cx="43" cy="95" r="4" fill="#0E1D27"/>
</svg>
