<svg xmlns="http://www.w3.org/2000/svg" width="120" height="55" viewBox="0 0 120 55"><g id="Group_11" data-name="Group 11" transform="translate(-556 -2318)"><g id="Group_9" data-name="Group 9" transform="translate(-19 -59)"><circle id="Ellipse_24" cx="1.5" cy="1.5" r="1.5" data-name="Ellipse 24" transform="translate(640 2377)"/><circle id="Ellipse_33" cx="1.5" cy="1.5" r="1.5" data-name="Ellipse 33" transform="translate(640 2390)"/><circle id="Ellipse_38" cx="1.5" cy="1.5" r="1.5" data-name="Ellipse 38" transform="translate(640 2403)"/><circle id="Ellipse_43" cx="1.5" cy="1.5" r="1.5" data-name="Ellipse 43" transform="translate(640 2416)"/><circle id="Ellipse_48" cx="1.5" cy="1.5" r="1.5" data-name="Ellipse 48" transform="translate(640 2429)"/><circle id="Ellipse_25" cx="1.5" cy="1.5" r="1.5" data-name="Ellipse 25" transform="translate(653 2377)"/><circle id="Ellipse_32" cx="1.5" cy="1.5" r="1.5" data-name="Ellipse 32" transform="translate(653 2390)"/><circle id="Ellipse_37" cx="1.5" cy="1.5" r="1.5" data-name="Ellipse 37" transform="translate(653 2403)"/><circle id="Ellipse_42" cx="1.5" cy="1.5" r="1.5" data-name="Ellipse 42" transform="translate(653 2416)"/><circle id="Ellipse_47" cx="1.5" cy="1.5" r="1.5" data-name="Ellipse 47" transform="translate(653 2429)"/><circle id="Ellipse_26" cx="1.5" cy="1.5" r="1.5" data-name="Ellipse 26" transform="translate(666 2377)"/><circle id="Ellipse_29" cx="1.5" cy="1.5" r="1.5" data-name="Ellipse 29" transform="translate(666 2390)"/><circle id="Ellipse_34" cx="1.5" cy="1.5" r="1.5" data-name="Ellipse 34" transform="translate(666 2403)"/><circle id="Ellipse_39" cx="1.5" cy="1.5" r="1.5" data-name="Ellipse 39" transform="translate(666 2416)"/><circle id="Ellipse_44" cx="1.5" cy="1.5" r="1.5" data-name="Ellipse 44" transform="translate(666 2429)"/><circle id="Ellipse_27" cx="1.5" cy="1.5" r="1.5" data-name="Ellipse 27" transform="translate(679 2377)"/><circle id="Ellipse_30" cx="1.5" cy="1.5" r="1.5" data-name="Ellipse 30" transform="translate(679 2390)"/><circle id="Ellipse_35" cx="1.5" cy="1.5" r="1.5" data-name="Ellipse 35" transform="translate(679 2403)"/><circle id="Ellipse_40" cx="1.5" cy="1.5" r="1.5" data-name="Ellipse 40" transform="translate(679 2416)"/><circle id="Ellipse_45" cx="1.5" cy="1.5" r="1.5" data-name="Ellipse 45" transform="translate(679 2429)"/><circle id="Ellipse_49" cx="1.5" cy="1.5" r="1.5" data-name="Ellipse 49" transform="translate(679 2429)"/><circle id="Ellipse_28" cx="1.5" cy="1.5" r="1.5" data-name="Ellipse 28" transform="translate(692 2377)"/><circle id="Ellipse_31" cx="1.5" cy="1.5" r="1.5" data-name="Ellipse 31" transform="translate(692 2390)"/><circle id="Ellipse_36" cx="1.5" cy="1.5" r="1.5" data-name="Ellipse 36" transform="translate(692 2403)"/><circle id="Ellipse_41" cx="1.5" cy="1.5" r="1.5" data-name="Ellipse 41" transform="translate(692 2416)"/><circle id="Ellipse_46" cx="1.5" cy="1.5" r="1.5" data-name="Ellipse 46" transform="translate(692 2429)"/></g><g id="Group_10" data-name="Group 10" transform="translate(-84 -59)"><circle id="Ellipse_24-2" cx="1.5" cy="1.5" r="1.5" data-name="Ellipse 24" transform="translate(640 2377)"/><circle id="Ellipse_33-2" cx="1.5" cy="1.5" r="1.5" data-name="Ellipse 33" transform="translate(640 2390)"/><circle id="Ellipse_38-2" cx="1.5" cy="1.5" r="1.5" data-name="Ellipse 38" transform="translate(640 2403)"/><circle id="Ellipse_43-2" cx="1.5" cy="1.5" r="1.5" data-name="Ellipse 43" transform="translate(640 2416)"/><circle id="Ellipse_48-2" cx="1.5" cy="1.5" r="1.5" data-name="Ellipse 48" transform="translate(640 2429)"/><circle id="Ellipse_25-2" cx="1.5" cy="1.5" r="1.5" data-name="Ellipse 25" transform="translate(653 2377)"/><circle id="Ellipse_32-2" cx="1.5" cy="1.5" r="1.5" data-name="Ellipse 32" transform="translate(653 2390)"/><circle id="Ellipse_37-2" cx="1.5" cy="1.5" r="1.5" data-name="Ellipse 37" transform="translate(653 2403)"/><circle id="Ellipse_42-2" cx="1.5" cy="1.5" r="1.5" data-name="Ellipse 42" transform="translate(653 2416)"/><circle id="Ellipse_47-2" cx="1.5" cy="1.5" r="1.5" data-name="Ellipse 47" transform="translate(653 2429)"/><circle id="Ellipse_26-2" cx="1.5" cy="1.5" r="1.5" data-name="Ellipse 26" transform="translate(666 2377)"/><circle id="Ellipse_29-2" cx="1.5" cy="1.5" r="1.5" data-name="Ellipse 29" transform="translate(666 2390)"/><circle id="Ellipse_34-2" cx="1.5" cy="1.5" r="1.5" data-name="Ellipse 34" transform="translate(666 2403)"/><circle id="Ellipse_39-2" cx="1.5" cy="1.5" r="1.5" data-name="Ellipse 39" transform="translate(666 2416)"/><circle id="Ellipse_44-2" cx="1.5" cy="1.5" r="1.5" data-name="Ellipse 44" transform="translate(666 2429)"/><circle id="Ellipse_27-2" cx="1.5" cy="1.5" r="1.5" data-name="Ellipse 27" transform="translate(679 2377)"/><circle id="Ellipse_30-2" cx="1.5" cy="1.5" r="1.5" data-name="Ellipse 30" transform="translate(679 2390)"/><circle id="Ellipse_35-2" cx="1.5" cy="1.5" r="1.5" data-name="Ellipse 35" transform="translate(679 2403)"/><circle id="Ellipse_40-2" cx="1.5" cy="1.5" r="1.5" data-name="Ellipse 40" transform="translate(679 2416)"/><circle id="Ellipse_45-2" cx="1.5" cy="1.5" r="1.5" data-name="Ellipse 45" transform="translate(679 2429)"/><circle id="Ellipse_49-2" cx="1.5" cy="1.5" r="1.5" data-name="Ellipse 49" transform="translate(679 2429)"/><circle id="Ellipse_28-2" cx="1.5" cy="1.5" r="1.5" data-name="Ellipse 28" transform="translate(692 2377)"/><circle id="Ellipse_31-2" cx="1.5" cy="1.5" r="1.5" data-name="Ellipse 31" transform="translate(692 2390)"/><circle id="Ellipse_36-2" cx="1.5" cy="1.5" r="1.5" data-name="Ellipse 36" transform="translate(692 2403)"/><circle id="Ellipse_41-2" cx="1.5" cy="1.5" r="1.5" data-name="Ellipse 41" transform="translate(692 2416)"/><circle id="Ellipse_46-2" cx="1.5" cy="1.5" r="1.5" data-name="Ellipse 46" transform="translate(692 2429)"/></g></g></svg>