<svg xmlns="http://www.w3.org/2000/svg" width="1440" height="603" fill="none" viewBox="0 0 1440 603"><mask id="mask0" width="1440" height="603" x="0" y="0" mask-type="alpha" maskUnits="userSpaceOnUse"><rect width="1440" height="603" fill="#C4C4C4"/></mask><g mask="url(#mask0)"><circle cx="1421" cy="145" r="4" fill="#1AE5BE"/><circle cx="1434" cy="145" r="4" fill="#1AE5BE"/><circle cx="1434" cy="158" r="4" fill="#1AE5BE"/><circle cx="1421" cy="158" r="4" fill="#1AE5BE"/><circle cx="1421" cy="171" r="4" fill="#1AE5BE"/><circle cx="1434" cy="171" r="4" fill="#1AE5BE"/><circle cx="1434" cy="184" r="4" fill="#1AE5BE"/><circle cx="1421" cy="184" r="4" fill="#1AE5BE"/><circle cx="1421" cy="197" r="4" fill="#1AE5BE"/><circle cx="1434" cy="197" r="4" fill="#1AE5BE"/><circle cx="1434" cy="210" r="4" fill="#1AE5BE"/><circle cx="1421" cy="210" r="4" fill="#1AE5BE"/><circle cx="1421" cy="223" r="4" fill="#1AE5BE"/><circle cx="1434" cy="223" r="4" fill="#1AE5BE"/><circle cx="1434" cy="236" r="4" fill="#1AE5BE"/><circle cx="1421" cy="236" r="4" fill="#1AE5BE"/><circle cx="-36" cy="118" r="73.5" stroke="#1AE5BE" stroke-width="3"/><circle cx="-36" cy="118" r="63.5" stroke="#0E1D27" stroke-width="3"/><circle cx="9" cy="331" r="4" fill="#0E1D27"/><circle cx="22" cy="331" r="4" fill="#0E1D27"/><circle cx="22" cy="344" r="4" fill="#0E1D27"/><circle cx="9" cy="344" r="4" fill="#0E1D27"/><circle cx="9" cy="357" r="4" fill="#0E1D27"/><circle cx="22" cy="357" r="4" fill="#0E1D27"/><circle cx="22" cy="370" r="4" fill="#0E1D27"/><circle cx="9" cy="370" r="4" fill="#0E1D27"/><circle cx="9" cy="383" r="4" fill="#0E1D27"/><circle cx="22" cy="383" r="4" fill="#0E1D27"/><circle cx="22" cy="396" r="4" fill="#0E1D27"/><circle cx="9" cy="396" r="4" fill="#0E1D27"/><circle cx="9" cy="409" r="4" fill="#0E1D27"/><circle cx="22" cy="409" r="4" fill="#0E1D27"/><circle cx="22" cy="422" r="4" fill="#0E1D27"/><circle cx="9" cy="422" r="4" fill="#0E1D27"/><circle cx="1475" cy="469" r="73.5" stroke="#1AE5BE" stroke-width="3"/><circle cx="1475" cy="469" r="63.5" stroke="#0E1D27" stroke-width="3"/></g></svg>