<svg width="1329" height="132" viewBox="0 0 1329 132" fill="none" xmlns="http://www.w3.org/2000/svg">
<g clip-path="url(#clip0)">
<path d="M89.9056 25.5292L88.61 25.6494L88.0953 26.8445C88.0593 26.9281 87.9407 26.9281 87.9046 26.8445L87.39 25.6494L86.0944 25.5292C86.0037 25.5208 85.967 25.408 86.0354 25.3479L87.013 24.4891L86.7269 23.2198C86.7069 23.1309 86.8029 23.0611 86.8812 23.1077L88 23.772L89.1188 23.1077C89.1971 23.0611 89.2931 23.1309 89.2731 23.2198L88.987 24.4891L89.9646 25.3479C90.033 25.408 89.9963 25.5208 89.9056 25.5292Z" fill="white"/>
<path d="M88.0953 26.8445C88.0593 26.9281 87.9407 26.9281 87.9046 26.8445L87.39 25.6494L86.0944 25.5292C86.0037 25.5208 85.967 25.408 86.0354 25.3479L87.013 24.4891L86.7269 23.2198C86.7069 23.1309 86.8029 23.0611 86.8812 23.1077L87.1309 23.2559C87.1655 24.6786 87.8265 25.6804 88.3498 26.2536L88.0953 26.8445Z" fill="white"/>
</g>
<g clip-path="url(#clip1)">
<path d="M188.906 2.52924L187.61 2.6494L187.095 3.84447C187.059 3.92815 186.941 3.92815 186.905 3.84447L186.39 2.64939L185.094 2.52924C185.004 2.52082 184.967 2.40799 185.035 2.34786L186.013 1.4891L185.727 0.219755C185.707 0.13088 185.803 0.0611458 185.881 0.107661L187 0.771988L188.119 0.107661C188.197 0.0611458 188.293 0.13088 188.273 0.219755L187.987 1.4891L188.965 2.34786C189.033 2.40799 188.996 2.52082 188.906 2.52924Z" fill="white"/>
<path d="M187.095 3.84447C187.059 3.92815 186.941 3.92815 186.905 3.84447L186.39 2.64939L185.094 2.52924C185.004 2.52082 184.967 2.40799 185.035 2.34786L186.013 1.4891L185.727 0.219755C185.707 0.13088 185.803 0.0611458 185.881 0.107661L186.131 0.255934C186.165 1.6786 186.826 2.68045 187.35 3.25356L187.095 3.84447Z" fill="white"/>
</g>
<g clip-path="url(#clip2)">
<path d="M219.906 112.529L218.61 112.649L218.095 113.844C218.059 113.928 217.941 113.928 217.905 113.844L217.39 112.649L216.094 112.529C216.004 112.521 215.967 112.408 216.035 112.348L217.013 111.489L216.727 110.22C216.707 110.131 216.803 110.061 216.881 110.108L218 110.772L219.119 110.108C219.197 110.061 219.293 110.131 219.273 110.22L218.987 111.489L219.965 112.348C220.033 112.408 219.996 112.521 219.906 112.529Z" fill="white"/>
<path d="M218.095 113.844C218.059 113.928 217.941 113.928 217.905 113.844L217.39 112.649L216.094 112.529C216.004 112.521 215.967 112.408 216.035 112.348L217.013 111.489L216.727 110.22C216.707 110.131 216.803 110.061 216.881 110.108L217.131 110.256C217.165 111.679 217.826 112.68 218.35 113.254L218.095 113.844Z" fill="white"/>
</g>
<g clip-path="url(#clip3)">
<path d="M3.90562 2.52924L2.61 2.6494L2.09535 3.84447C2.05932 3.92815 1.94067 3.92815 1.90464 3.84447L1.38999 2.64939L0.094377 2.52924C0.00365844 2.52082 -0.0330055 2.40799 0.0354396 2.34786L1.01298 1.4891L0.726907 0.219755C0.706876 0.13088 0.80286 0.0611458 0.881196 0.107661L2 0.771988L3.1188 0.107661C3.19714 0.0611458 3.29313 0.13088 3.2731 0.219755L2.98701 1.4891L3.96456 2.34786C4.033 2.40799 3.99634 2.52082 3.90562 2.52924Z" fill="white"/>
<path d="M2.09535 3.84447C2.05932 3.92815 1.94067 3.92815 1.90464 3.84447L1.38999 2.64939L0.094377 2.52924C0.00365844 2.52082 -0.0330055 2.40799 0.0354396 2.34786L1.01298 1.4891L0.726907 0.219755C0.706876 0.13088 0.80286 0.0611458 0.881196 0.107661L1.13091 0.255934C1.16547 1.6786 1.82648 2.68045 2.34983 3.25356L2.09535 3.84447Z" fill="white"/>
</g>
<g clip-path="url(#clip4)">
<path d="M89.9056 93.5292L88.61 93.6494L88.0953 94.8445C88.0593 94.9281 87.9407 94.9281 87.9046 94.8445L87.39 93.6494L86.0944 93.5292C86.0037 93.5208 85.967 93.408 86.0354 93.3479L87.013 92.4891L86.7269 91.2198C86.7069 91.1309 86.8029 91.0611 86.8812 91.1077L88 91.772L89.1188 91.1077C89.1971 91.0611 89.2931 91.1309 89.2731 91.2198L88.987 92.4891L89.9646 93.3479C90.033 93.408 89.9963 93.5208 89.9056 93.5292Z" fill="white"/>
<path d="M88.0953 94.8445C88.0593 94.9281 87.9407 94.9281 87.9046 94.8445L87.39 93.6494L86.0944 93.5292C86.0037 93.5208 85.967 93.408 86.0354 93.3479L87.013 92.4891L86.7269 91.2198C86.7069 91.1309 86.8029 91.0611 86.8812 91.1077L87.1309 91.2559C87.1655 92.6786 87.8265 93.6804 88.3498 94.2536L88.0953 94.8445Z" fill="white"/>
</g>
<g clip-path="url(#clip5)">
<path d="M309.906 18.5292L308.61 18.6494L308.095 19.8445C308.059 19.9281 307.941 19.9281 307.905 19.8445L307.39 18.6494L306.094 18.5292C306.004 18.5208 305.967 18.408 306.035 18.3479L307.013 17.4891L306.727 16.2198C306.707 16.1309 306.803 16.0611 306.881 16.1077L308 16.772L309.119 16.1077C309.197 16.0611 309.293 16.1309 309.273 16.2198L308.987 17.4891L309.965 18.3479C310.033 18.408 309.996 18.5208 309.906 18.5292Z" fill="white"/>
<path d="M308.095 19.8445C308.059 19.9281 307.941 19.9281 307.905 19.8445L307.39 18.6494L306.094 18.5292C306.004 18.5208 305.967 18.408 306.035 18.3479L307.013 17.4891L306.727 16.2198C306.707 16.1309 306.803 16.0611 306.881 16.1077L307.131 16.2559C307.165 17.6786 307.826 18.6804 308.35 19.2536L308.095 19.8445Z" fill="white"/>
</g>
<g clip-path="url(#clip6)">
<path d="M538.906 18.5292L537.61 18.6494L537.095 19.8445C537.059 19.9281 536.941 19.9281 536.905 19.8445L536.39 18.6494L535.094 18.5292C535.004 18.5208 534.967 18.408 535.035 18.3479L536.013 17.4891L535.727 16.2198C535.707 16.1309 535.803 16.0611 535.881 16.1077L537 16.772L538.119 16.1077C538.197 16.0611 538.293 16.1309 538.273 16.2198L537.987 17.4891L538.965 18.3479C539.033 18.408 538.996 18.5208 538.906 18.5292Z" fill="white"/>
<path d="M537.095 19.8445C537.059 19.9281 536.941 19.9281 536.905 19.8445L536.39 18.6494L535.094 18.5292C535.004 18.5208 534.967 18.408 535.035 18.3479L536.013 17.4891L535.727 16.2198C535.707 16.1309 535.803 16.0611 535.881 16.1077L536.131 16.2559C536.165 17.6786 536.826 18.6804 537.35 19.2536L537.095 19.8445Z" fill="white"/>
</g>
<g clip-path="url(#clip7)">
<path d="M420.906 2.52924L419.61 2.6494L419.095 3.84447C419.059 3.92815 418.941 3.92815 418.905 3.84447L418.39 2.64939L417.094 2.52924C417.004 2.52082 416.967 2.40799 417.035 2.34786L418.013 1.4891L417.727 0.219755C417.707 0.13088 417.803 0.0611458 417.881 0.107661L419 0.771988L420.119 0.107661C420.197 0.0611458 420.293 0.13088 420.273 0.219755L419.987 1.4891L420.965 2.34786C421.033 2.40799 420.996 2.52082 420.906 2.52924Z" fill="white"/>
<path d="M419.095 3.84447C419.059 3.92815 418.941 3.92815 418.905 3.84447L418.39 2.64939L417.094 2.52924C417.004 2.52082 416.967 2.40799 417.035 2.34786L418.013 1.4891L417.727 0.219755C417.707 0.13088 417.803 0.0611458 417.881 0.107661L418.131 0.255934C418.165 1.6786 418.826 2.68045 419.35 3.25356L419.095 3.84447Z" fill="white"/>
</g>
<g clip-path="url(#clip8)">
<path d="M188.906 60.5292L187.61 60.6494L187.095 61.8445C187.059 61.9281 186.941 61.9281 186.905 61.8445L186.39 60.6494L185.094 60.5292C185.004 60.5208 184.967 60.408 185.035 60.3479L186.013 59.4891L185.727 58.2198C185.707 58.1309 185.803 58.0611 185.881 58.1077L187 58.772L188.119 58.1077C188.197 58.0611 188.293 58.1309 188.273 58.2198L187.987 59.4891L188.965 60.3479C189.033 60.408 188.996 60.5208 188.906 60.5292Z" fill="white"/>
<path d="M187.095 61.8445C187.059 61.9281 186.941 61.9281 186.905 61.8445L186.39 60.6494L185.094 60.5292C185.004 60.5208 184.967 60.408 185.035 60.3479L186.013 59.4891L185.727 58.2198C185.707 58.1309 185.803 58.0611 185.881 58.1077L186.131 58.2559C186.165 59.6786 186.826 60.6804 187.35 61.2536L187.095 61.8445Z" fill="white"/>
</g>
<g clip-path="url(#clip9)">
<path d="M309.906 85.5292L308.61 85.6494L308.095 86.8445C308.059 86.9281 307.941 86.9281 307.905 86.8445L307.39 85.6494L306.094 85.5292C306.004 85.5208 305.967 85.408 306.035 85.3479L307.013 84.4891L306.727 83.2198C306.707 83.1309 306.803 83.0611 306.881 83.1077L308 83.772L309.119 83.1077C309.197 83.0611 309.293 83.1309 309.273 83.2198L308.987 84.4891L309.965 85.3479C310.033 85.408 309.996 85.5208 309.906 85.5292Z" fill="white"/>
<path d="M308.095 86.8445C308.059 86.9281 307.941 86.9281 307.905 86.8445L307.39 85.6494L306.094 85.5292C306.004 85.5208 305.967 85.408 306.035 85.3479L307.013 84.4891L306.727 83.2198C306.707 83.1309 306.803 83.0611 306.881 83.1077L307.131 83.2559C307.165 84.6786 307.826 85.6804 308.35 86.2536L308.095 86.8445Z" fill="white"/>
</g>
<g clip-path="url(#clip10)">
<path d="M397.906 117.529L396.61 117.649L396.095 118.844C396.059 118.928 395.941 118.928 395.905 118.844L395.39 117.649L394.094 117.529C394.004 117.521 393.967 117.408 394.035 117.348L395.013 116.489L394.727 115.22C394.707 115.131 394.803 115.061 394.881 115.108L396 115.772L397.119 115.108C397.197 115.061 397.293 115.131 397.273 115.22L396.987 116.489L397.965 117.348C398.033 117.408 397.996 117.521 397.906 117.529Z" fill="white"/>
<path d="M396.095 118.844C396.059 118.928 395.941 118.928 395.905 118.844L395.39 117.649L394.094 117.529C394.004 117.521 393.967 117.408 394.035 117.348L395.013 116.489L394.727 115.22C394.707 115.131 394.803 115.061 394.881 115.108L395.131 115.256C395.165 116.679 395.826 117.68 396.35 118.254L396.095 118.844Z" fill="white"/>
</g>
<g clip-path="url(#clip11)">
<path d="M475.906 106.529L474.61 106.649L474.095 107.844C474.059 107.928 473.941 107.928 473.905 107.844L473.39 106.649L472.094 106.529C472.004 106.521 471.967 106.408 472.035 106.348L473.013 105.489L472.727 104.22C472.707 104.131 472.803 104.061 472.881 104.108L474 104.772L475.119 104.108C475.197 104.061 475.293 104.131 475.273 104.22L474.987 105.489L475.965 106.348C476.033 106.408 475.996 106.521 475.906 106.529Z" fill="white"/>
<path d="M474.095 107.844C474.059 107.928 473.941 107.928 473.905 107.844L473.39 106.649L472.094 106.529C472.004 106.521 471.967 106.408 472.035 106.348L473.013 105.489L472.727 104.22C472.707 104.131 472.803 104.061 472.881 104.108L473.131 104.256C473.165 105.679 473.826 106.68 474.35 107.254L474.095 107.844Z" fill="white"/>
</g>
<g clip-path="url(#clip12)">
<path d="M3.90562 52.5292L2.61 52.6494L2.09535 53.8445C2.05932 53.9281 1.94067 53.9281 1.90464 53.8445L1.38999 52.6494L0.094377 52.5292C0.00365844 52.5208 -0.0330055 52.408 0.0354396 52.3479L1.01298 51.4891L0.726907 50.2198C0.706876 50.1309 0.80286 50.0611 0.881196 50.1077L2 50.772L3.1188 50.1077C3.19714 50.0611 3.29313 50.1309 3.2731 50.2198L2.98701 51.4891L3.96456 52.3479C4.033 52.408 3.99634 52.5208 3.90562 52.5292Z" fill="white"/>
<path d="M2.09535 53.8445C2.05932 53.9281 1.94067 53.9281 1.90464 53.8445L1.38999 52.6494L0.094377 52.5292C0.00365844 52.5208 -0.0330055 52.408 0.0354396 52.3479L1.01298 51.4891L0.726907 50.2198C0.706876 50.1309 0.80286 50.0611 0.881196 50.1077L1.13091 50.2559C1.16547 51.6786 1.82648 52.6804 2.34983 53.2536L2.09535 53.8445Z" fill="white"/>
</g>
<g clip-path="url(#clip13)">
<path d="M705.906 114.529L704.61 114.649L704.095 115.844C704.059 115.928 703.941 115.928 703.905 115.844L703.39 114.649L702.094 114.529C702.004 114.521 701.967 114.408 702.035 114.348L703.013 113.489L702.727 112.22C702.707 112.131 702.803 112.061 702.881 112.108L704 112.772L705.119 112.108C705.197 112.061 705.293 112.131 705.273 112.22L704.987 113.489L705.965 114.348C706.033 114.408 705.996 114.521 705.906 114.529Z" fill="white"/>
<path d="M704.095 115.844C704.059 115.928 703.941 115.928 703.905 115.844L703.39 114.649L702.094 114.529C702.004 114.521 701.967 114.408 702.035 114.348L703.013 113.489L702.727 112.22C702.707 112.131 702.803 112.061 702.881 112.108L703.131 112.256C703.165 113.679 703.826 114.68 704.35 115.254L704.095 115.844Z" fill="white"/>
</g>
<g clip-path="url(#clip14)">
<path d="M545.906 85.5292L544.61 85.6494L544.095 86.8445C544.059 86.9281 543.941 86.9281 543.905 86.8445L543.39 85.6494L542.094 85.5292C542.004 85.5208 541.967 85.408 542.035 85.3479L543.013 84.4891L542.727 83.2198C542.707 83.1309 542.803 83.0611 542.881 83.1077L544 83.772L545.119 83.1077C545.197 83.0611 545.293 83.1309 545.273 83.2198L544.987 84.4891L545.965 85.3479C546.033 85.408 545.996 85.5208 545.906 85.5292Z" fill="white"/>
<path d="M544.095 86.8445C544.059 86.9281 543.941 86.9281 543.905 86.8445L543.39 85.6494L542.094 85.5292C542.004 85.5208 541.967 85.408 542.035 85.3479L543.013 84.4891L542.727 83.2198C542.707 83.1309 542.803 83.0611 542.881 83.1077L543.131 83.2559C543.165 84.6786 543.826 85.6804 544.35 86.2536L544.095 86.8445Z" fill="white"/>
</g>
<g clip-path="url(#clip15)">
<path d="M594.906 121.529L593.61 121.649L593.095 122.844C593.059 122.928 592.941 122.928 592.905 122.844L592.39 121.649L591.094 121.529C591.004 121.521 590.967 121.408 591.035 121.348L592.013 120.489L591.727 119.22C591.707 119.131 591.803 119.061 591.881 119.108L593 119.772L594.119 119.108C594.197 119.061 594.293 119.131 594.273 119.22L593.987 120.489L594.965 121.348C595.033 121.408 594.996 121.521 594.906 121.529Z" fill="white"/>
<path d="M593.095 122.844C593.059 122.928 592.941 122.928 592.905 122.844L592.39 121.649L591.094 121.529C591.004 121.521 590.967 121.408 591.035 121.348L592.013 120.489L591.727 119.22C591.707 119.131 591.803 119.061 591.881 119.108L592.131 119.256C592.165 120.679 592.826 121.68 593.35 122.254L593.095 122.844Z" fill="white"/>
</g>
<g clip-path="url(#clip16)">
<path d="M420.906 44.5292L419.61 44.6494L419.095 45.8445C419.059 45.9281 418.941 45.9281 418.905 45.8445L418.39 44.6494L417.094 44.5292C417.004 44.5208 416.967 44.408 417.035 44.3479L418.013 43.4891L417.727 42.2198C417.707 42.1309 417.803 42.0611 417.881 42.1077L419 42.772L420.119 42.1077C420.197 42.0611 420.293 42.1309 420.273 42.2198L419.987 43.4891L420.965 44.3479C421.033 44.408 420.996 44.5208 420.906 44.5292Z" fill="white"/>
<path d="M419.095 45.8445C419.059 45.9281 418.941 45.9281 418.905 45.8445L418.39 44.6494L417.094 44.5292C417.004 44.5208 416.967 44.408 417.035 44.3479L418.013 43.4891L417.727 42.2198C417.707 42.1309 417.803 42.0611 417.881 42.1077L418.131 42.2559C418.165 43.6786 418.826 44.6804 419.35 45.2536L419.095 45.8445Z" fill="white"/>
</g>
<g clip-path="url(#clip17)">
<path d="M25.9056 119.529L24.61 119.649L24.0953 120.844C24.0593 120.928 23.9407 120.928 23.9046 120.844L23.39 119.649L22.0944 119.529C22.0037 119.521 21.967 119.408 22.0354 119.348L23.013 118.489L22.7269 117.22C22.7069 117.131 22.8029 117.061 22.8812 117.108L24 117.772L25.1188 117.108C25.1971 117.061 25.2931 117.131 25.2731 117.22L24.987 118.489L25.9646 119.348C26.033 119.408 25.9963 119.521 25.9056 119.529Z" fill="white"/>
<path d="M24.0953 120.844C24.0593 120.928 23.9407 120.928 23.9046 120.844L23.39 119.649L22.0944 119.529C22.0037 119.521 21.967 119.408 22.0354 119.348L23.013 118.489L22.7269 117.22C22.7069 117.131 22.8029 117.061 22.8812 117.108L23.1309 117.256C23.1655 118.679 23.8265 119.68 24.3498 120.254L24.0953 120.844Z" fill="white"/>
</g>
<g clip-path="url(#clip18)">
<path d="M656.906 2.52924L655.61 2.6494L655.095 3.84447C655.059 3.92815 654.941 3.92815 654.905 3.84447L654.39 2.64939L653.094 2.52924C653.004 2.52082 652.967 2.40799 653.035 2.34786L654.013 1.4891L653.727 0.219755C653.707 0.13088 653.803 0.0611458 653.881 0.107661L655 0.771988L656.119 0.107661C656.197 0.0611458 656.293 0.13088 656.273 0.219755L655.987 1.4891L656.965 2.34786C657.033 2.40799 656.996 2.52082 656.906 2.52924Z" fill="white"/>
<path d="M655.095 3.84447C655.059 3.92815 654.941 3.92815 654.905 3.84447L654.39 2.64939L653.094 2.52924C653.004 2.52082 652.967 2.40799 653.035 2.34786L654.013 1.4891L653.727 0.219755C653.707 0.13088 653.803 0.0611458 653.881 0.107661L654.131 0.255934C654.165 1.6786 654.826 2.68045 655.35 3.25356L655.095 3.84447Z" fill="white"/>
</g>
<g clip-path="url(#clip19)">
<path d="M902.906 52.5292L901.61 52.6494L901.095 53.8445C901.059 53.9281 900.941 53.9281 900.905 53.8445L900.39 52.6494L899.094 52.5292C899.004 52.5208 898.967 52.408 899.035 52.3479L900.013 51.4891L899.727 50.2198C899.707 50.1309 899.803 50.0611 899.881 50.1077L901 50.772L902.119 50.1077C902.197 50.0611 902.293 50.1309 902.273 50.2198L901.987 51.4891L902.965 52.3479C903.033 52.408 902.996 52.5208 902.906 52.5292Z" fill="white"/>
<path d="M901.095 53.8445C901.059 53.9281 900.941 53.9281 900.905 53.8445L900.39 52.6494L899.094 52.5292C899.004 52.5208 898.967 52.408 899.035 52.3479L900.013 51.4891L899.727 50.2198C899.707 50.1309 899.803 50.0611 899.881 50.1077L900.131 50.2559C900.165 51.6786 900.826 52.6804 901.35 53.2536L901.095 53.8445Z" fill="white"/>
</g>
<g clip-path="url(#clip20)">
<path d="M1020.91 85.5292L1019.61 85.6494L1019.1 86.8445C1019.06 86.9281 1018.94 86.9281 1018.9 86.8445L1018.39 85.6494L1017.09 85.5292C1017 85.5208 1016.97 85.408 1017.04 85.3479L1018.01 84.4891L1017.73 83.2198C1017.71 83.1309 1017.8 83.0611 1017.88 83.1077L1019 83.772L1020.12 83.1077C1020.2 83.0611 1020.29 83.1309 1020.27 83.2198L1019.99 84.4891L1020.96 85.3479C1021.03 85.408 1021 85.5208 1020.91 85.5292Z" fill="white"/>
<path d="M1019.1 86.8445C1019.06 86.9281 1018.94 86.9281 1018.9 86.8445L1018.39 85.6494L1017.09 85.5292C1017 85.5208 1016.97 85.408 1017.04 85.3479L1018.01 84.4891L1017.73 83.2198C1017.71 83.1309 1017.8 83.0611 1017.88 83.1077L1018.13 83.2559C1018.17 84.6786 1018.83 85.6804 1019.35 86.2536L1019.1 86.8445Z" fill="white"/>
</g>
<g clip-path="url(#clip21)">
<path d="M895.906 2.52924L894.61 2.6494L894.095 3.84447C894.059 3.92815 893.941 3.92815 893.905 3.84447L893.39 2.64939L892.094 2.52924C892.004 2.52082 891.967 2.40799 892.035 2.34786L893.013 1.4891L892.727 0.219755C892.707 0.13088 892.803 0.0611458 892.881 0.107661L894 0.771988L895.119 0.107661C895.197 0.0611458 895.293 0.13088 895.273 0.219755L894.987 1.4891L895.965 2.34786C896.033 2.40799 895.996 2.52082 895.906 2.52924Z" fill="white"/>
<path d="M894.095 3.84447C894.059 3.92815 893.941 3.92815 893.905 3.84447L893.39 2.64939L892.094 2.52924C892.004 2.52082 891.967 2.40799 892.035 2.34786L893.013 1.4891L892.727 0.219755C892.707 0.13088 892.803 0.0611458 892.881 0.107661L893.131 0.255934C893.165 1.6786 893.826 2.68045 894.35 3.25356L894.095 3.84447Z" fill="white"/>
</g>
<g clip-path="url(#clip22)">
<path d="M784.906 18.5292L783.61 18.6494L783.095 19.8445C783.059 19.9281 782.941 19.9281 782.905 19.8445L782.39 18.6494L781.094 18.5292C781.004 18.5208 780.967 18.408 781.035 18.3479L782.013 17.4891L781.727 16.2198C781.707 16.1309 781.803 16.0611 781.881 16.1077L783 16.772L784.119 16.1077C784.197 16.0611 784.293 16.1309 784.273 16.2198L783.987 17.4891L784.965 18.3479C785.033 18.408 784.996 18.5208 784.906 18.5292Z" fill="white"/>
<path d="M783.095 19.8445C783.059 19.9281 782.941 19.9281 782.905 19.8445L782.39 18.6494L781.094 18.5292C781.004 18.5208 780.967 18.408 781.035 18.3479L782.013 17.4891L781.727 16.2198C781.707 16.1309 781.803 16.0611 781.881 16.1077L782.131 16.2559C782.165 17.6786 782.826 18.6804 783.35 19.2536L783.095 19.8445Z" fill="white"/>
</g>
<g clip-path="url(#clip23)">
<path d="M784.906 85.5292L783.61 85.6494L783.095 86.8445C783.059 86.9281 782.941 86.9281 782.905 86.8445L782.39 85.6494L781.094 85.5292C781.004 85.5208 780.967 85.408 781.035 85.3479L782.013 84.4891L781.727 83.2198C781.707 83.1309 781.803 83.0611 781.881 83.1077L783 83.772L784.119 83.1077C784.197 83.0611 784.293 83.1309 784.273 83.2198L783.987 84.4891L784.965 85.3479C785.033 85.408 784.996 85.5208 784.906 85.5292Z" fill="white"/>
<path d="M783.095 86.8445C783.059 86.9281 782.941 86.9281 782.905 86.8445L782.39 85.6494L781.094 85.5292C781.004 85.5208 780.967 85.408 781.035 85.3479L782.013 84.4891L781.727 83.2198C781.707 83.1309 781.803 83.0611 781.881 83.1077L782.131 83.2559C782.165 84.6786 782.826 85.6804 783.35 86.2536L783.095 86.8445Z" fill="white"/>
</g>
<g clip-path="url(#clip24)">
<path d="M834.906 108.529L833.61 108.649L833.095 109.844C833.059 109.928 832.941 109.928 832.905 109.844L832.39 108.649L831.094 108.529C831.004 108.521 830.967 108.408 831.035 108.348L832.013 107.489L831.727 106.22C831.707 106.131 831.803 106.061 831.881 106.108L833 106.772L834.119 106.108C834.197 106.061 834.293 106.131 834.273 106.22L833.987 107.489L834.965 108.348C835.033 108.408 834.996 108.521 834.906 108.529Z" fill="white"/>
<path d="M833.095 109.844C833.059 109.928 832.941 109.928 832.905 109.844L832.39 108.649L831.094 108.529C831.004 108.521 830.967 108.408 831.035 108.348L832.013 107.489L831.727 106.22C831.707 106.131 831.803 106.061 831.881 106.108L832.131 106.256C832.165 107.679 832.826 108.68 833.35 109.254L833.095 109.844Z" fill="white"/>
</g>
<g clip-path="url(#clip25)">
<path d="M1122.91 52.5292L1121.61 52.6494L1121.1 53.8445C1121.06 53.9281 1120.94 53.9281 1120.9 53.8445L1120.39 52.6494L1119.09 52.5292C1119 52.5208 1118.97 52.408 1119.04 52.3479L1120.01 51.4891L1119.73 50.2198C1119.71 50.1309 1119.8 50.0611 1119.88 50.1077L1121 50.772L1122.12 50.1077C1122.2 50.0611 1122.29 50.1309 1122.27 50.2198L1121.99 51.4891L1122.96 52.3479C1123.03 52.408 1123 52.5208 1122.91 52.5292Z" fill="white"/>
<path d="M1121.1 53.8445C1121.06 53.9281 1120.94 53.9281 1120.9 53.8445L1120.39 52.6494L1119.09 52.5292C1119 52.5208 1118.97 52.408 1119.04 52.3479L1120.01 51.4891L1119.73 50.2198C1119.71 50.1309 1119.8 50.0611 1119.88 50.1077L1120.13 50.2559C1120.17 51.6786 1120.83 52.6804 1121.35 53.2536L1121.1 53.8445Z" fill="white"/>
</g>
<g clip-path="url(#clip26)">
<path d="M1013.91 18.5292L1012.61 18.6494L1012.1 19.8445C1012.06 19.9281 1011.94 19.9281 1011.9 19.8445L1011.39 18.6494L1010.09 18.5292C1010 18.5208 1009.97 18.408 1010.04 18.3479L1011.01 17.4891L1010.73 16.2198C1010.71 16.1309 1010.8 16.0611 1010.88 16.1077L1012 16.772L1013.12 16.1077C1013.2 16.0611 1013.29 16.1309 1013.27 16.2198L1012.99 17.4891L1013.96 18.3479C1014.03 18.408 1014 18.5208 1013.91 18.5292Z" fill="white"/>
<path d="M1012.1 19.8445C1012.06 19.9281 1011.94 19.9281 1011.9 19.8445L1011.39 18.6494L1010.09 18.5292C1010 18.5208 1009.97 18.408 1010.04 18.3479L1011.01 17.4891L1010.73 16.2198C1010.71 16.1309 1010.8 16.0611 1010.88 16.1077L1011.13 16.2559C1011.17 17.6786 1011.83 18.6804 1012.35 19.2536L1012.1 19.8445Z" fill="white"/>
</g>
<g clip-path="url(#clip27)">
<path d="M1088.91 130.529L1087.61 130.649L1087.1 131.844C1087.06 131.928 1086.94 131.928 1086.9 131.844L1086.39 130.649L1085.09 130.529C1085 130.521 1084.97 130.408 1085.04 130.348L1086.01 129.489L1085.73 128.22C1085.71 128.131 1085.8 128.061 1085.88 128.108L1087 128.772L1088.12 128.108C1088.2 128.061 1088.29 128.131 1088.27 128.22L1087.99 129.489L1088.96 130.348C1089.03 130.408 1089 130.521 1088.91 130.529Z" fill="white"/>
<path d="M1087.1 131.844C1087.06 131.928 1086.94 131.928 1086.9 131.844L1086.39 130.649L1085.09 130.529C1085 130.521 1084.97 130.408 1085.04 130.348L1086.01 129.489L1085.73 128.22C1085.71 128.131 1085.8 128.061 1085.88 128.108L1086.13 128.256C1086.17 129.679 1086.83 130.68 1087.35 131.254L1087.1 131.844Z" fill="white"/>
</g>
<g clip-path="url(#clip28)">
<path d="M930.906 113.529L929.61 113.649L929.095 114.844C929.059 114.928 928.941 114.928 928.905 114.844L928.39 113.649L927.094 113.529C927.004 113.521 926.967 113.408 927.035 113.348L928.013 112.489L927.727 111.22C927.707 111.131 927.803 111.061 927.881 111.108L929 111.772L930.119 111.108C930.197 111.061 930.293 111.131 930.273 111.22L929.987 112.489L930.965 113.348C931.033 113.408 930.996 113.521 930.906 113.529Z" fill="white"/>
<path d="M929.095 114.844C929.059 114.928 928.941 114.928 928.905 114.844L928.39 113.649L927.094 113.529C927.004 113.521 926.967 113.408 927.035 113.348L928.013 112.489L927.727 111.22C927.707 111.131 927.803 111.061 927.881 111.108L928.131 111.256C928.165 112.679 928.826 113.68 929.35 114.254L929.095 114.844Z" fill="white"/>
</g>
<g clip-path="url(#clip29)">
<path d="M1240.91 93.5292L1239.61 93.6494L1239.1 94.8445C1239.06 94.9281 1238.94 94.9281 1238.9 94.8445L1238.39 93.6494L1237.09 93.5292C1237 93.5208 1236.97 93.408 1237.04 93.3479L1238.01 92.4891L1237.73 91.2198C1237.71 91.1309 1237.8 91.0611 1237.88 91.1077L1239 91.772L1240.12 91.1077C1240.2 91.0611 1240.29 91.1309 1240.27 91.2198L1239.99 92.4891L1240.96 93.3479C1241.03 93.408 1241 93.5208 1240.91 93.5292Z" fill="white"/>
<path d="M1239.1 94.8445C1239.06 94.9281 1238.94 94.9281 1238.9 94.8445L1238.39 93.6494L1237.09 93.5292C1237 93.5208 1236.97 93.408 1237.04 93.3479L1238.01 92.4891L1237.73 91.2198C1237.71 91.1309 1237.8 91.0611 1237.88 91.1077L1238.13 91.2559C1238.17 92.6786 1238.83 93.6804 1239.35 94.2536L1239.1 94.8445Z" fill="white"/>
</g>
<g clip-path="url(#clip30)">
<path d="M1311.91 128.529L1310.61 128.649L1310.1 129.844C1310.06 129.928 1309.94 129.928 1309.9 129.844L1309.39 128.649L1308.09 128.529C1308 128.521 1307.97 128.408 1308.04 128.348L1309.01 127.489L1308.73 126.22C1308.71 126.131 1308.8 126.061 1308.88 126.108L1310 126.772L1311.12 126.108C1311.2 126.061 1311.29 126.131 1311.27 126.22L1310.99 127.489L1311.96 128.348C1312.03 128.408 1312 128.521 1311.91 128.529Z" fill="white"/>
<path d="M1310.1 129.844C1310.06 129.928 1309.94 129.928 1309.9 129.844L1309.39 128.649L1308.09 128.529C1308 128.521 1307.97 128.408 1308.04 128.348L1309.01 127.489L1308.73 126.22C1308.71 126.131 1308.8 126.061 1308.88 126.108L1309.13 126.256C1309.17 127.679 1309.83 128.68 1310.35 129.254L1310.1 129.844Z" fill="white"/>
</g>
<g clip-path="url(#clip31)">
<path d="M1328.91 52.5292L1327.61 52.6494L1327.1 53.8445C1327.06 53.9281 1326.94 53.9281 1326.9 53.8445L1326.39 52.6494L1325.09 52.5292C1325 52.5208 1324.97 52.408 1325.04 52.3479L1326.01 51.4891L1325.73 50.2198C1325.71 50.1309 1325.8 50.0611 1325.88 50.1077L1327 50.772L1328.12 50.1077C1328.2 50.0611 1328.29 50.1309 1328.27 50.2198L1327.99 51.4891L1328.96 52.3479C1329.03 52.408 1329 52.5208 1328.91 52.5292Z" fill="white"/>
<path d="M1327.1 53.8445C1327.06 53.9281 1326.94 53.9281 1326.9 53.8445L1326.39 52.6494L1325.09 52.5292C1325 52.5208 1324.97 52.408 1325.04 52.3479L1326.01 51.4891L1325.73 50.2198C1325.71 50.1309 1325.8 50.0611 1325.88 50.1077L1326.13 50.2559C1326.17 51.6786 1326.83 52.6804 1327.35 53.2536L1327.1 53.8445Z" fill="white"/>
</g>
<g clip-path="url(#clip32)">
<path d="M1122.91 2.52924L1121.61 2.6494L1121.1 3.84447C1121.06 3.92815 1120.94 3.92815 1120.9 3.84447L1120.39 2.64939L1119.09 2.52924C1119 2.52082 1118.97 2.40799 1119.04 2.34786L1120.01 1.4891L1119.73 0.219755C1119.71 0.13088 1119.8 0.0611458 1119.88 0.107661L1121 0.771988L1122.12 0.107661C1122.2 0.0611458 1122.29 0.13088 1122.27 0.219755L1121.99 1.4891L1122.96 2.34786C1123.03 2.40799 1123 2.52082 1122.91 2.52924Z" fill="white"/>
<path d="M1121.1 3.84447C1121.06 3.92815 1120.94 3.92815 1120.9 3.84447L1120.39 2.64939L1119.09 2.52924C1119 2.52082 1118.97 2.40799 1119.04 2.34786L1120.01 1.4891L1119.73 0.219755C1119.71 0.13088 1119.8 0.0611458 1119.88 0.107661L1120.13 0.255934C1120.17 1.6786 1120.83 2.68045 1121.35 3.25356L1121.1 3.84447Z" fill="white"/>
</g>
<g clip-path="url(#clip33)">
<path d="M1233.91 18.5292L1232.61 18.6494L1232.1 19.8445C1232.06 19.9281 1231.94 19.9281 1231.9 19.8445L1231.39 18.6494L1230.09 18.5292C1230 18.5208 1229.97 18.408 1230.04 18.3479L1231.01 17.4891L1230.73 16.2198C1230.71 16.1309 1230.8 16.0611 1230.88 16.1077L1232 16.772L1233.12 16.1077C1233.2 16.0611 1233.29 16.1309 1233.27 16.2198L1232.99 17.4891L1233.96 18.3479C1234.03 18.408 1234 18.5208 1233.91 18.5292Z" fill="white"/>
<path d="M1232.1 19.8445C1232.06 19.9281 1231.94 19.9281 1231.9 19.8445L1231.39 18.6494L1230.09 18.5292C1230 18.5208 1229.97 18.408 1230.04 18.3479L1231.01 17.4891L1230.73 16.2198C1230.71 16.1309 1230.8 16.0611 1230.88 16.1077L1231.13 16.2559C1231.17 17.6786 1231.83 18.6804 1232.35 19.2536L1232.1 19.8445Z" fill="white"/>
</g>
<g clip-path="url(#clip34)">
<path d="M1328.91 2.52924L1327.61 2.6494L1327.1 3.84447C1327.06 3.92815 1326.94 3.92815 1326.9 3.84447L1326.39 2.64939L1325.09 2.52924C1325 2.52082 1324.97 2.40799 1325.04 2.34786L1326.01 1.4891L1325.73 0.219755C1325.71 0.13088 1325.8 0.0611458 1325.88 0.107661L1327 0.771988L1328.12 0.107661C1328.2 0.0611458 1328.29 0.13088 1328.27 0.219755L1327.99 1.4891L1328.96 2.34786C1329.03 2.40799 1329 2.52082 1328.91 2.52924Z" fill="white"/>
<path d="M1327.1 3.84447C1327.06 3.92815 1326.94 3.92815 1326.9 3.84447L1326.39 2.64939L1325.09 2.52924C1325 2.52082 1324.97 2.40799 1325.04 2.34786L1326.01 1.4891L1325.73 0.219755C1325.71 0.13088 1325.8 0.0611458 1325.88 0.107661L1326.13 0.255934C1326.17 1.6786 1326.83 2.68045 1327.35 3.25356L1327.1 3.84447Z" fill="white"/>
</g>
<g clip-path="url(#clip35)">
<path d="M656.906 52.5292L655.61 52.6494L655.095 53.8445C655.059 53.9281 654.941 53.9281 654.905 53.8445L654.39 52.6494L653.094 52.5292C653.004 52.5208 652.967 52.408 653.035 52.3479L654.013 51.4891L653.727 50.2198C653.707 50.1309 653.803 50.0611 653.881 50.1077L655 50.772L656.119 50.1077C656.197 50.0611 656.293 50.1309 656.273 50.2198L655.987 51.4891L656.965 52.3479C657.033 52.408 656.996 52.5208 656.906 52.5292Z" fill="white"/>
<path d="M655.095 53.8445C655.059 53.9281 654.941 53.9281 654.905 53.8445L654.39 52.6494L653.094 52.5292C653.004 52.5208 652.967 52.408 653.035 52.3479L654.013 51.4891L653.727 50.2198C653.707 50.1309 653.803 50.0611 653.881 50.1077L654.131 50.2559C654.165 51.6786 654.826 52.6804 655.35 53.2536L655.095 53.8445Z" fill="white"/>
</g>
<defs>
<clipPath id="clip0">
<rect width="4" height="4" fill="white" transform="matrix(1 0 0 -1 86 27)"/>
</clipPath>
<clipPath id="clip1">
<rect width="4" height="4" fill="white" transform="matrix(1 0 0 -1 185 4)"/>
</clipPath>
<clipPath id="clip2">
<rect width="4" height="4" fill="white" transform="matrix(1 0 0 -1 216 114)"/>
</clipPath>
<clipPath id="clip3">
<rect width="4" height="4" fill="white" transform="matrix(1 0 0 -1 0 4)"/>
</clipPath>
<clipPath id="clip4">
<rect width="4" height="4" fill="white" transform="matrix(1 0 0 -1 86 95)"/>
</clipPath>
<clipPath id="clip5">
<rect width="4" height="4" fill="white" transform="matrix(1 0 0 -1 306 20)"/>
</clipPath>
<clipPath id="clip6">
<rect width="4" height="4" fill="white" transform="matrix(1 0 0 -1 535 20)"/>
</clipPath>
<clipPath id="clip7">
<rect width="4" height="4" fill="white" transform="matrix(1 0 0 -1 417 4)"/>
</clipPath>
<clipPath id="clip8">
<rect width="4" height="4" fill="white" transform="matrix(1 0 0 -1 185 62)"/>
</clipPath>
<clipPath id="clip9">
<rect width="4" height="4" fill="white" transform="matrix(1 0 0 -1 306 87)"/>
</clipPath>
<clipPath id="clip10">
<rect width="4" height="4" fill="white" transform="matrix(1 0 0 -1 394 119)"/>
</clipPath>
<clipPath id="clip11">
<rect width="4" height="4" fill="white" transform="matrix(1 0 0 -1 472 108)"/>
</clipPath>
<clipPath id="clip12">
<rect width="4" height="4" fill="white" transform="matrix(1 0 0 -1 0 54)"/>
</clipPath>
<clipPath id="clip13">
<rect width="4" height="4" fill="white" transform="matrix(1 0 0 -1 702 116)"/>
</clipPath>
<clipPath id="clip14">
<rect width="4" height="4" fill="white" transform="matrix(1 0 0 -1 542 87)"/>
</clipPath>
<clipPath id="clip15">
<rect width="4" height="4" fill="white" transform="matrix(1 0 0 -1 591 123)"/>
</clipPath>
<clipPath id="clip16">
<rect width="4" height="4" fill="white" transform="matrix(1 0 0 -1 417 46)"/>
</clipPath>
<clipPath id="clip17">
<rect width="4" height="4" fill="white" transform="matrix(1 0 0 -1 22 121)"/>
</clipPath>
<clipPath id="clip18">
<rect width="4" height="4" fill="white" transform="matrix(1 0 0 -1 653 4)"/>
</clipPath>
<clipPath id="clip19">
<rect width="4" height="4" fill="white" transform="matrix(1 0 0 -1 899 54)"/>
</clipPath>
<clipPath id="clip20">
<rect width="4" height="4" fill="white" transform="matrix(1 0 0 -1 1017 87)"/>
</clipPath>
<clipPath id="clip21">
<rect width="4" height="4" fill="white" transform="matrix(1 0 0 -1 892 4)"/>
</clipPath>
<clipPath id="clip22">
<rect width="4" height="4" fill="white" transform="matrix(1 0 0 -1 781 20)"/>
</clipPath>
<clipPath id="clip23">
<rect width="4" height="4" fill="white" transform="matrix(1 0 0 -1 781 87)"/>
</clipPath>
<clipPath id="clip24">
<rect width="4" height="4" fill="white" transform="matrix(1 0 0 -1 831 110)"/>
</clipPath>
<clipPath id="clip25">
<rect width="4" height="4" fill="white" transform="matrix(1 0 0 -1 1119 54)"/>
</clipPath>
<clipPath id="clip26">
<rect width="4" height="4" fill="white" transform="matrix(1 0 0 -1 1010 20)"/>
</clipPath>
<clipPath id="clip27">
<rect width="4" height="4" fill="white" transform="matrix(1 0 0 -1 1085 132)"/>
</clipPath>
<clipPath id="clip28">
<rect width="4" height="4" fill="white" transform="matrix(1 0 0 -1 927 115)"/>
</clipPath>
<clipPath id="clip29">
<rect width="4" height="4" fill="white" transform="matrix(1 0 0 -1 1237 95)"/>
</clipPath>
<clipPath id="clip30">
<rect width="4" height="4" fill="white" transform="matrix(1 0 0 -1 1308 130)"/>
</clipPath>
<clipPath id="clip31">
<rect width="4" height="4" fill="white" transform="matrix(1 0 0 -1 1325 54)"/>
</clipPath>
<clipPath id="clip32">
<rect width="4" height="4" fill="white" transform="matrix(1 0 0 -1 1119 4)"/>
</clipPath>
<clipPath id="clip33">
<rect width="4" height="4" fill="white" transform="matrix(1 0 0 -1 1230 20)"/>
</clipPath>
<clipPath id="clip34">
<rect width="4" height="4" fill="white" transform="matrix(1 0 0 -1 1325 4)"/>
</clipPath>
<clipPath id="clip35">
<rect width="4" height="4" fill="white" transform="matrix(1 0 0 -1 653 54)"/>
</clipPath>
</defs>
</svg>
